<svg xmlns="http://www.w3.org/2000/svg" viewBox="0 0 64 64" width="64" height="64">
  <defs>
    <radialGradient id="wax" cx="38%" cy="34%" r="72%">
      <stop offset="0%" stop-color="#ffc24d"/>
      <stop offset="55%" stop-color="#e0a32e"/>
      <stop offset="100%" stop-color="#b8791f"/>
    </radialGradient>
  </defs>
  <rect width="64" height="64" rx="13" fill="#0b1626"/>
  <!-- Wachssiegel mit unregelmäßigem Rand -->
  <path d="M32 11
           c5 0 7 -2 10 1 c3 2 2 5 4 7 c2 3 5 3 5 7 c0 4 -3 5 -4 8
           c-1 3 0 6 -3 8 c-3 2 -6 0 -9 1 c-3 1 -4 3 -7 3 c-4 0 -5 -3 -8 -4
           c-3 -1 -6 0 -8 -3 c-2 -3 0 -6 -1 -9 c-1 -3 -4 -4 -4 -8
           c0 -4 3 -5 4 -8 c1 -3 0 -6 3 -8 c3 -2 6 0 9 -1 c3 -1 4 -2 9 -1 z"
        fill="url(#wax)"/>
  <!-- eingeprägtes Monogramm: Haus-Giebel -->
  <path d="M22 36 L32 25 L42 36 L42 37.5 L38 37.5 L38 44 L26 44 L26 37.5 L22 37.5 Z"
        fill="#0b1626" opacity=".82"/>
</svg>
